<svg font-family="'Source Sans Pro', 'Segoe UI', Roboto, Helvetica, Arial, sans-serif" viewBox="0 0 560 300" xmlns="http://www.w3.org/2000/svg" role="img" aria-label="Current around a small loop is uniform and circulates; around a one-wavelength loop fed at the bottom it falls to zero a quarter of the way around and reverses, so the currents at the top and bottom point the same way">
<defs><marker id="l12r-ar" viewBox="0 0 10 10" refX="7" refY="5" markerWidth="4.5" markerHeight="4.5" orient="auto"><path d="M0 0 L10 5 L0 10 z" fill="#004a85"/></marker></defs>
<line x1="280.0" y1="16" x2="280.0" y2="284" stroke="#dbe3ee" stroke-width="1"/>
<text x="140.0" y="30.0" fill="#004a85" font-size="14.5" font-weight="700" text-anchor="middle">Small loop, C ≪ λ</text>
<circle cx="140" cy="150" r="82" fill="none" stroke="#9aa9bb" stroke-width="2.5"/><circle cx="140" cy="232" r="5.5" fill="#b01e24"/><text x="140.0" y="254.0" fill="#b01e24" font-size="12.5" text-anchor="middle">feed</text>
<line x1="169.2" y1="227.8" x2="192.8" y2="214.2" stroke="#004a85" stroke-width="3" stroke-linecap="round" marker-end="url(#l12r-ar)"/>
<line x1="215.7" y1="184.4" x2="222.7" y2="158.1" stroke="#004a85" stroke-width="3" stroke-linecap="round" marker-end="url(#l12r-ar)"/>
<line x1="217.8" y1="120.8" x2="204.2" y2="97.2" stroke="#004a85" stroke-width="3" stroke-linecap="round" marker-end="url(#l12r-ar)"/>
<line x1="174.4" y1="74.3" x2="148.1" y2="67.3" stroke="#004a85" stroke-width="3" stroke-linecap="round" marker-end="url(#l12r-ar)"/>
<line x1="110.8" y1="72.2" x2="87.2" y2="85.8" stroke="#004a85" stroke-width="3" stroke-linecap="round" marker-end="url(#l12r-ar)"/>
<line x1="64.3" y1="115.6" x2="57.3" y2="141.9" stroke="#004a85" stroke-width="3" stroke-linecap="round" marker-end="url(#l12r-ar)"/>
<line x1="62.2" y1="179.2" x2="75.8" y2="202.8" stroke="#004a85" stroke-width="3" stroke-linecap="round" marker-end="url(#l12r-ar)"/>
<line x1="105.6" y1="225.7" x2="131.9" y2="232.7" stroke="#004a85" stroke-width="3" stroke-linecap="round" marker-end="url(#l12r-ar)"/>
<text x="140.0" y="286.0" fill="#5a5a5a" font-size="13" text-anchor="middle">uniform current circulates</text>
<text x="420.0" y="30.0" fill="#004a85" font-size="14.5" font-weight="700" text-anchor="middle">Resonant loop, C = λ</text>
<circle cx="420" cy="150" r="82" fill="none" stroke="#9aa9bb" stroke-width="2.5"/><circle cx="420" cy="232" r="5.5" fill="#b01e24"/><text x="420.0" y="254.0" fill="#b01e24" font-size="12.5" text-anchor="middle">feed</text>
<line x1="448.2" y1="228.4" x2="473.8" y2="213.7" stroke="#004a85" stroke-width="3" stroke-linecap="round" marker-end="url(#l12r-ar)"/>
<line x1="486.8" y1="198.4" x2="495.3" y2="183.6" stroke="#004a85" stroke-width="3" stroke-linecap="round" marker-end="url(#l12r-ar)"/>
<line x1="486.8" y1="101.6" x2="495.3" y2="116.4" stroke="#004a85" stroke-width="3" stroke-linecap="round" marker-end="url(#l12r-ar)"/>
<line x1="448.2" y1="71.6" x2="473.8" y2="86.3" stroke="#004a85" stroke-width="3" stroke-linecap="round" marker-end="url(#l12r-ar)"/>
<line x1="403.0" y1="68.0" x2="437.0" y2="68.0" stroke="#004a85" stroke-width="3" stroke-linecap="round" marker-end="url(#l12r-ar)"/>
<line x1="366.2" y1="86.3" x2="391.8" y2="71.6" stroke="#004a85" stroke-width="3" stroke-linecap="round" marker-end="url(#l12r-ar)"/>
<line x1="344.7" y1="116.4" x2="353.2" y2="101.6" stroke="#004a85" stroke-width="3" stroke-linecap="round" marker-end="url(#l12r-ar)"/>
<line x1="344.7" y1="183.6" x2="353.2" y2="198.4" stroke="#004a85" stroke-width="3" stroke-linecap="round" marker-end="url(#l12r-ar)"/>
<line x1="366.2" y1="213.7" x2="391.7" y2="228.4" stroke="#004a85" stroke-width="3" stroke-linecap="round" marker-end="url(#l12r-ar)"/>
<circle cx="502.0" cy="150.0" r="5" fill="#ffffff" stroke="#0067b9" stroke-width="2"/>
<text x="514.0" y="155.0" fill="#0067b9" font-size="12.5" text-anchor="start">null</text>
<circle cx="338.0" cy="150.0" r="5" fill="#ffffff" stroke="#0067b9" stroke-width="2"/>
<text x="326.0" y="155.0" fill="#0067b9" font-size="12.5" text-anchor="end">null</text>
<text x="420.0" y="286.0" fill="#5a5a5a" font-size="13" text-anchor="middle">top and bottom currents point the same way</text>
</svg>
