<svg xmlns:xlink="http://www.w3.org/1999/xlink" width="600.705312pt" height="282.757969pt" viewBox="0 0 600.705312 282.757969" xmlns="http://www.w3.org/2000/svg" version="1.1">
 <metadata>
  <rdf:RDF xmlns:dc="http://purl.org/dc/elements/1.1/" xmlns:cc="http://creativecommons.org/ns#" xmlns:rdf="http://www.w3.org/1999/02/22-rdf-syntax-ns#">
   <cc:Work>
    <dc:type rdf:resource="http://purl.org/dc/dcmitype/StillImage"/>
    <dc:date>2026-08-23T17:37:10.681484</dc:date>
    <dc:format>image/svg+xml</dc:format>
    <dc:creator>
     <cc:Agent>
      <dc:title>Matplotlib v3.11.1, https://matplotlib.org/</dc:title>
     </cc:Agent>
    </dc:creator>
   </cc:Work>
  </rdf:RDF>
 </metadata>
 <defs>
  <style type="text/css">*{stroke-linejoin: round; stroke-linecap: butt}</style>
 </defs>
 <g id="figure_1">
  <g id="patch_1">
   <path d="M 0 282.757969 
L 600.705312 282.757969 
L 600.705312 0 
L 0 0 
L 0 282.757969 
z
" style="fill: none"/>
  </g>
  <g id="axes_1">
   <g id="patch_2">
    <path d="M 55.757109 241.436953 
L 588.114063 241.436953 
L 588.114063 4.32 
L 55.757109 4.32 
L 55.757109 241.436953 
z
" style="fill: none"/>
   </g>
   <g id="matplotlib.axis_1">
    <g id="xtick_1">
     <g id="line2d_1">
      <path d="M 55.757109 241.436953 
L 55.757109 4.32 
" clip-path="url(#p83a9f8bd74)" style="fill: none; stroke: #c7d2e0; stroke-width: 0.8; stroke-linecap: square"/>
     </g>
     <g id="line2d_2">
      <defs>
       <path id="m12564e6e0e" d="M 0 0 
L 0 3.5 
" style="stroke: #5a5a5a; stroke-width: 0.8"/>
      </defs>
      <g>
       <use xlink:href="#m12564e6e0e" x="55.757109" y="241.436953" style="fill: #5a5a5a; stroke: #5a5a5a; stroke-width: 0.8"/>
      </g>
     </g>
     <g id="text_1">
      <text style="font-size: 13px; font-family:inherit; text-anchor: middle; fill: #5a5a5a" x="55.757109" y="258.313906" transform="rotate(-0 55.757109 258.313906)">−60</text>
     </g>
    </g>
    <g id="xtick_2">
     <g id="line2d_3">
      <path d="M 122.301729 241.436953 
L 122.301729 4.32 
" clip-path="url(#p83a9f8bd74)" style="fill: none; stroke: #c7d2e0; stroke-width: 0.8; stroke-linecap: square"/>
     </g>
     <g id="line2d_4">
      <g>
       <use xlink:href="#m12564e6e0e" x="122.301729" y="241.436953" style="fill: #5a5a5a; stroke: #5a5a5a; stroke-width: 0.8"/>
      </g>
     </g>
     <g id="text_2">
      <text style="font-size: 13px; font-family:inherit; text-anchor: middle; fill: #5a5a5a" x="122.301729" y="258.313906" transform="rotate(-0 122.301729 258.313906)">−45</text>
     </g>
    </g>
    <g id="xtick_3">
     <g id="line2d_5">
      <path d="M 188.846348 241.436953 
L 188.846348 4.32 
" clip-path="url(#p83a9f8bd74)" style="fill: none; stroke: #c7d2e0; stroke-width: 0.8; stroke-linecap: square"/>
     </g>
     <g id="line2d_6">
      <g>
       <use xlink:href="#m12564e6e0e" x="188.846348" y="241.436953" style="fill: #5a5a5a; stroke: #5a5a5a; stroke-width: 0.8"/>
      </g>
     </g>
     <g id="text_3">
      <text style="font-size: 13px; font-family:inherit; text-anchor: middle; fill: #5a5a5a" x="188.846348" y="258.313906" transform="rotate(-0 188.846348 258.313906)">−30</text>
     </g>
    </g>
    <g id="xtick_4">
     <g id="line2d_7">
      <path d="M 255.390967 241.436953 
L 255.390967 4.32 
" clip-path="url(#p83a9f8bd74)" style="fill: none; stroke: #c7d2e0; stroke-width: 0.8; stroke-linecap: square"/>
     </g>
     <g id="line2d_8">
      <g>
       <use xlink:href="#m12564e6e0e" x="255.390967" y="241.436953" style="fill: #5a5a5a; stroke: #5a5a5a; stroke-width: 0.8"/>
      </g>
     </g>
     <g id="text_4">
      <text style="font-size: 13px; font-family:inherit; text-anchor: middle; fill: #5a5a5a" x="255.390967" y="258.313906" transform="rotate(-0 255.390967 258.313906)">−15</text>
     </g>
    </g>
    <g id="xtick_5">
     <g id="line2d_9">
      <path d="M 321.935586 241.436953 
L 321.935586 4.32 
" clip-path="url(#p83a9f8bd74)" style="fill: none; stroke: #c7d2e0; stroke-width: 0.8; stroke-linecap: square"/>
     </g>
     <g id="line2d_10">
      <g>
       <use xlink:href="#m12564e6e0e" x="321.935586" y="241.436953" style="fill: #5a5a5a; stroke: #5a5a5a; stroke-width: 0.8"/>
      </g>
     </g>
     <g id="text_5">
      <text style="font-size: 13px; font-family:inherit; text-anchor: middle; fill: #5a5a5a" x="321.935586" y="258.313906" transform="rotate(-0 321.935586 258.313906)">0</text>
     </g>
    </g>
    <g id="xtick_6">
     <g id="line2d_11">
      <path d="M 388.480205 241.436953 
L 388.480205 4.32 
" clip-path="url(#p83a9f8bd74)" style="fill: none; stroke: #c7d2e0; stroke-width: 0.8; stroke-linecap: square"/>
     </g>
     <g id="line2d_12">
      <g>
       <use xlink:href="#m12564e6e0e" x="388.480205" y="241.436953" style="fill: #5a5a5a; stroke: #5a5a5a; stroke-width: 0.8"/>
      </g>
     </g>
     <g id="text_6">
      <text style="font-size: 13px; font-family:inherit; text-anchor: middle; fill: #5a5a5a" x="388.480205" y="258.313906" transform="rotate(-0 388.480205 258.313906)">15</text>
     </g>
    </g>
    <g id="xtick_7">
     <g id="line2d_13">
      <path d="M 455.024824 241.436953 
L 455.024824 4.32 
" clip-path="url(#p83a9f8bd74)" style="fill: none; stroke: #c7d2e0; stroke-width: 0.8; stroke-linecap: square"/>
     </g>
     <g id="line2d_14">
      <g>
       <use xlink:href="#m12564e6e0e" x="455.024824" y="241.436953" style="fill: #5a5a5a; stroke: #5a5a5a; stroke-width: 0.8"/>
      </g>
     </g>
     <g id="text_7">
      <text style="font-size: 13px; font-family:inherit; text-anchor: middle; fill: #5a5a5a" x="455.024824" y="258.313906" transform="rotate(-0 455.024824 258.313906)">30</text>
     </g>
    </g>
    <g id="xtick_8">
     <g id="line2d_15">
      <path d="M 521.569443 241.436953 
L 521.569443 4.32 
" clip-path="url(#p83a9f8bd74)" style="fill: none; stroke: #c7d2e0; stroke-width: 0.8; stroke-linecap: square"/>
     </g>
     <g id="line2d_16">
      <g>
       <use xlink:href="#m12564e6e0e" x="521.569443" y="241.436953" style="fill: #5a5a5a; stroke: #5a5a5a; stroke-width: 0.8"/>
      </g>
     </g>
     <g id="text_8">
      <text style="font-size: 13px; font-family:inherit; text-anchor: middle; fill: #5a5a5a" x="521.569443" y="258.313906" transform="rotate(-0 521.569443 258.313906)">45</text>
     </g>
    </g>
    <g id="xtick_9">
     <g id="line2d_17">
      <path d="M 588.114063 241.436953 
L 588.114063 4.32 
" clip-path="url(#p83a9f8bd74)" style="fill: none; stroke: #c7d2e0; stroke-width: 0.8; stroke-linecap: square"/>
     </g>
     <g id="line2d_18">
      <g>
       <use xlink:href="#m12564e6e0e" x="588.114063" y="241.436953" style="fill: #5a5a5a; stroke: #5a5a5a; stroke-width: 0.8"/>
      </g>
     </g>
     <g id="text_9">
      <text style="font-size: 13px; font-family:inherit; text-anchor: middle; fill: #5a5a5a" x="588.114063" y="258.313906" transform="rotate(-0 588.114063 258.313906)">60</text>
     </g>
    </g>
    <g id="text_10">
     <text style="font-size: 13px; font-family:inherit; text-anchor: middle; fill: #1a1a1a" x="321.935586" y="275.314922" transform="rotate(-0 321.935586 275.314922)">angle from broadside (deg)</text>
    </g>
   </g>
   <g id="matplotlib.axis_2">
    <g id="ytick_1">
     <g id="line2d_19">
      <path d="M 55.757109 234.662183 
L 588.114063 234.662183 
" clip-path="url(#p83a9f8bd74)" style="fill: none; stroke: #c7d2e0; stroke-width: 0.8; stroke-linecap: square"/>
     </g>
     <g id="line2d_20">
      <defs>
       <path id="me62157d928" d="M 0 0 
L -3.5 0 
" style="stroke: #5a5a5a; stroke-width: 0.8"/>
      </defs>
      <g>
       <use xlink:href="#me62157d928" x="55.757109" y="234.662183" style="fill: #5a5a5a; stroke: #5a5a5a; stroke-width: 0.8"/>
      </g>
     </g>
     <g id="text_11">
      <text style="font-size: 13px; font-family:inherit; text-anchor: end; fill: #5a5a5a" x="48.757109" y="239.60066" transform="rotate(-0 48.757109 239.60066)">−30</text>
     </g>
    </g>
    <g id="ytick_2">
     <g id="line2d_21">
      <path d="M 55.757109 200.788333 
L 588.114063 200.788333 
" clip-path="url(#p83a9f8bd74)" style="fill: none; stroke: #c7d2e0; stroke-width: 0.8; stroke-linecap: square"/>
     </g>
     <g id="line2d_22">
      <g>
       <use xlink:href="#me62157d928" x="55.757109" y="200.788333" style="fill: #5a5a5a; stroke: #5a5a5a; stroke-width: 0.8"/>
      </g>
     </g>
     <g id="text_12">
      <text style="font-size: 13px; font-family:inherit; text-anchor: end; fill: #5a5a5a" x="48.757109" y="205.726809" transform="rotate(-0 48.757109 205.726809)">−25</text>
     </g>
    </g>
    <g id="ytick_3">
     <g id="line2d_23">
      <path d="M 55.757109 166.914482 
L 588.114063 166.914482 
" clip-path="url(#p83a9f8bd74)" style="fill: none; stroke: #c7d2e0; stroke-width: 0.8; stroke-linecap: square"/>
     </g>
     <g id="line2d_24">
      <g>
       <use xlink:href="#me62157d928" x="55.757109" y="166.914482" style="fill: #5a5a5a; stroke: #5a5a5a; stroke-width: 0.8"/>
      </g>
     </g>
     <g id="text_13">
      <text style="font-size: 13px; font-family:inherit; text-anchor: end; fill: #5a5a5a" x="48.757109" y="171.852959" transform="rotate(-0 48.757109 171.852959)">−20</text>
     </g>
    </g>
    <g id="ytick_4">
     <g id="line2d_25">
      <path d="M 55.757109 133.040632 
L 588.114063 133.040632 
" clip-path="url(#p83a9f8bd74)" style="fill: none; stroke: #c7d2e0; stroke-width: 0.8; stroke-linecap: square"/>
     </g>
     <g id="line2d_26">
      <g>
       <use xlink:href="#me62157d928" x="55.757109" y="133.040632" style="fill: #5a5a5a; stroke: #5a5a5a; stroke-width: 0.8"/>
      </g>
     </g>
     <g id="text_14">
      <text style="font-size: 13px; font-family:inherit; text-anchor: end; fill: #5a5a5a" x="48.757109" y="137.979108" transform="rotate(-0 48.757109 137.979108)">−15</text>
     </g>
    </g>
    <g id="ytick_5">
     <g id="line2d_27">
      <path d="M 55.757109 99.166781 
L 588.114063 99.166781 
" clip-path="url(#p83a9f8bd74)" style="fill: none; stroke: #c7d2e0; stroke-width: 0.8; stroke-linecap: square"/>
     </g>
     <g id="line2d_28">
      <g>
       <use xlink:href="#me62157d928" x="55.757109" y="99.166781" style="fill: #5a5a5a; stroke: #5a5a5a; stroke-width: 0.8"/>
      </g>
     </g>
     <g id="text_15">
      <text style="font-size: 13px; font-family:inherit; text-anchor: end; fill: #5a5a5a" x="48.757109" y="104.105258" transform="rotate(-0 48.757109 104.105258)">−10</text>
     </g>
    </g>
    <g id="ytick_6">
     <g id="line2d_29">
      <path d="M 55.757109 65.292931 
L 588.114063 65.292931 
" clip-path="url(#p83a9f8bd74)" style="fill: none; stroke: #c7d2e0; stroke-width: 0.8; stroke-linecap: square"/>
     </g>
     <g id="line2d_30">
      <g>
       <use xlink:href="#me62157d928" x="55.757109" y="65.292931" style="fill: #5a5a5a; stroke: #5a5a5a; stroke-width: 0.8"/>
      </g>
     </g>
     <g id="text_16">
      <text style="font-size: 13px; font-family:inherit; text-anchor: end; fill: #5a5a5a" x="48.757109" y="70.231407" transform="rotate(-0 48.757109 70.231407)">−5</text>
     </g>
    </g>
    <g id="ytick_7">
     <g id="line2d_31">
      <path d="M 55.757109 31.41908 
L 588.114063 31.41908 
" clip-path="url(#p83a9f8bd74)" style="fill: none; stroke: #c7d2e0; stroke-width: 0.8; stroke-linecap: square"/>
     </g>
     <g id="line2d_32">
      <g>
       <use xlink:href="#me62157d928" x="55.757109" y="31.41908" style="fill: #5a5a5a; stroke: #5a5a5a; stroke-width: 0.8"/>
      </g>
     </g>
     <g id="text_17">
      <text style="font-size: 13px; font-family:inherit; text-anchor: end; fill: #5a5a5a" x="48.757109" y="36.357557" transform="rotate(-0 48.757109 36.357557)">0</text>
     </g>
    </g>
    <g id="text_18">
     <text style="font-size: 13px; font-family:inherit; text-anchor: middle; fill: #1a1a1a" x="14.197969" y="122.878477" transform="rotate(-90 14.197969 122.878477)">relative response (dB)</text>
    </g>
   </g>
   <g id="line2d_33">
    <path d="M 55.757109 144.660466 
L 58.685073 145.630353 
L 61.479947 146.787914 
L 64.274821 148.185131 
L 67.069695 149.834632 
L 69.864569 151.747738 
L 72.659443 153.933036 
L 75.587406 156.518093 
L 78.648458 159.537011 
L 81.975689 163.151342 
L 86.234545 168.140762 
L 91.691204 174.499833 
L 93.953721 176.796055 
L 95.81697 178.37444 
L 97.280952 179.34844 
L 98.611844 179.989128 
L 99.809647 180.341367 
L 101.00745 180.463992 
L 102.205254 180.346746 
L 103.403057 179.986326 
L 104.60086 179.386718 
L 105.931752 178.453492 
L 107.395734 177.130195 
L 108.992805 175.379337 
L 110.989143 172.831212 
L 113.517839 169.210011 
L 118.708319 161.260267 
L 122.834085 155.15892 
L 125.895138 151.013725 
L 128.690012 147.595329 
L 131.218707 144.83673 
L 133.614314 142.533022 
L 136.00992 140.541319 
L 138.272437 138.954098 
L 140.401865 137.726609 
L 142.531293 136.762729 
L 144.527631 136.103608 
L 146.52397 135.686671 
L 148.387219 135.521618 
L 150.250469 135.579061 
L 152.113718 135.865944 
L 153.976967 136.39025 
L 155.840217 137.161081 
L 157.703466 138.188708 
L 159.566715 139.484566 
L 161.429965 141.06115 
L 163.293214 142.931739 
L 165.156463 145.109818 
L 167.152802 147.79896 
L 169.14914 150.867238 
L 171.278568 154.560975 
L 173.541085 158.939584 
L 176.335959 164.869144 
L 180.860993 174.548521 
L 182.324975 177.143893 
L 183.522778 178.821116 
L 184.454403 179.759394 
L 185.252938 180.26325 
L 185.918384 180.450642 
L 186.583831 180.415487 
L 187.249277 180.152976 
L 187.914723 179.664135 
L 188.713258 178.788695 
L 189.644883 177.397298 
L 190.709597 175.379509 
L 192.040489 172.34419 
L 193.903739 167.451721 
L 202.687628 143.480347 
L 205.083235 137.9815 
L 207.345752 133.344082 
L 209.47518 129.472083 
L 211.604607 126.068866 
L 213.600946 123.294597 
L 215.464195 121.061504 
L 217.327445 119.167371 
L 219.057605 117.709632 
L 220.787765 116.541532 
L 222.384836 115.721882 
L 223.981907 115.153671 
L 225.445888 114.857889 
L 226.90987 114.782832 
L 228.373851 114.935393 
L 229.837833 115.324256 
L 231.301815 115.960139 
L 232.765796 116.856101 
L 234.229778 118.027921 
L 235.69376 119.494559 
L 237.157741 121.278715 
L 238.621723 123.407493 
L 240.085704 125.913154 
L 241.549686 128.83389 
L 243.146757 132.546309 
L 244.743828 136.873051 
L 246.340899 141.887445 
L 247.937969 147.658432 
L 249.66813 154.800998 
L 251.797557 164.654133 
L 254.060074 174.933911 
L 254.991699 178.156852 
L 255.657145 179.704932 
L 256.189502 180.355964 
L 256.58877 180.456338 
L 256.854948 180.328777 
L 257.254216 179.841812 
L 257.786573 178.652635 
L 258.452019 176.369487 
L 259.250555 172.667499 
L 260.448358 165.804373 
L 266.570463 128.560899 
L 268.566801 118.507257 
L 270.56314 109.535929 
L 272.692568 100.994104 
L 274.821996 93.355166 
L 277.084513 86.079725 
L 279.34703 79.546738 
L 281.609547 73.656551 
L 284.005153 68.033386 
L 286.400759 62.968965 
L 288.796366 58.40458 
L 291.191972 54.293106 
L 293.587578 50.596352 
L 295.983184 47.28313 
L 298.378791 44.327804 
L 300.774397 41.709224 
L 303.170003 39.4099 
L 305.56561 37.415387 
L 307.961216 35.713809 
L 310.356822 34.295486 
L 312.619339 33.209031 
L 314.881856 32.363158 
L 317.144373 31.75396 
L 319.40689 31.378676 
L 321.669407 31.235623 
L 323.931925 31.324164 
L 326.194442 31.644694 
L 328.456959 32.198645 
L 330.719476 32.988522 
L 332.981993 34.017955 
L 335.24451 35.291782 
L 337.507027 36.816167 
L 339.769544 38.598742 
L 342.16515 40.777962 
L 344.560756 43.270489 
L 346.956363 46.092562 
L 349.351969 49.263824 
L 351.747575 52.808053 
L 354.143182 56.754131 
L 356.538788 61.137326 
L 358.934394 66.001017 
L 361.33 71.399041 
L 363.592518 77.048416 
L 365.855035 83.305978 
L 367.984462 89.831601 
L 370.11389 97.070765 
L 372.243318 105.142697 
L 374.239657 113.597272 
L 376.235995 123.055552 
L 378.232334 133.659435 
L 380.361762 146.296437 
L 384.886796 174.000727 
L 385.685331 177.381305 
L 386.350777 179.322498 
L 386.883134 180.205826 
L 387.282402 180.456338 
L 387.54858 180.427688 
L 387.947848 180.101362 
L 388.347116 179.456341 
L 388.879473 178.156852 
L 389.678008 175.453284 
L 390.742722 170.930168 
L 395.933202 147.658432 
L 397.663363 141.441526 
L 399.260433 136.487253 
L 400.857504 132.214457 
L 402.454575 128.550089 
L 404.051646 125.427909 
L 405.648717 122.791 
L 407.245788 120.591586 
L 408.842859 118.790003 
L 410.30684 117.459948 
L 411.770822 116.415665 
L 413.234803 115.639704 
L 414.698785 115.117573 
L 416.162767 114.83732 
L 417.626748 114.789185 
L 419.09073 114.965326 
L 420.554712 115.359594 
L 422.151782 116.033066 
L 423.748853 116.956458 
L 425.345924 118.127344 
L 427.076084 119.674166 
L 428.806244 121.511353 
L 430.669494 123.817647 
L 432.532743 126.468998 
L 434.529082 129.70024 
L 436.658509 133.601872 
L 438.787937 137.9815 
L 441.050454 143.159238 
L 443.44606 149.205357 
L 446.374024 157.247887 
L 451.564504 171.683026 
L 453.161575 175.379509 
L 454.359378 177.618879 
L 455.291003 178.955745 
L 456.089538 179.779764 
L 456.888074 180.28533 
L 457.55352 180.456691 
L 458.218966 180.401932 
L 458.884412 180.128109 
L 459.682948 179.527895 
L 460.614572 178.490584 
L 461.679286 176.92978 
L 463.010179 174.548521 
L 464.873428 170.711296 
L 471.660979 156.310001 
L 473.923496 152.201829 
L 476.052924 148.779203 
L 478.049262 145.964682 
L 480.045601 143.522091 
L 482.04194 141.436779 
L 483.905189 139.79833 
L 485.768438 138.4434 
L 487.631688 137.359297 
L 489.494937 136.534343 
L 491.358186 135.958016 
L 493.221436 135.620965 
L 495.084685 135.514975 
L 496.947934 135.632887 
L 498.811184 135.9685 
L 500.807522 136.563605 
L 502.803861 137.396823 
L 504.800199 138.463236 
L 506.929627 139.852818 
L 509.192144 141.608784 
L 511.454661 143.646453 
L 513.850268 146.102468 
L 516.378963 149.014529 
L 519.173837 152.589191 
L 522.23489 156.879382 
L 526.227567 162.894685 
L 532.083493 171.725556 
L 534.34601 174.73458 
L 536.20926 176.859175 
L 537.80633 178.345525 
L 539.137223 179.305743 
L 540.468115 179.986326 
L 541.665918 180.346746 
L 542.863721 180.463992 
L 544.061525 180.341367 
L 545.259328 179.989128 
L 546.59022 179.34844 
L 548.054202 178.37444 
L 549.651273 177.041499 
L 551.647611 175.069498 
L 554.309396 172.095866 
L 565.222714 159.537011 
L 568.283766 156.518093 
L 571.211729 153.933036 
L 574.006603 151.747738 
L 576.801477 149.834632 
L 579.596351 148.185131 
L 582.391225 146.787914 
L 585.186099 145.630353 
L 588.114063 144.660466 
L 588.114063 144.660466 
" clip-path="url(#p83a9f8bd74)" style="fill: none; stroke: #5a5a5a; stroke-width: 1.4; stroke-linecap: square"/>
   </g>
   <g id="line2d_34">
    <path d="M 55.757109 130.571005 
L 61.213768 125.879931 
L 66.004981 122.046546 
L 70.396926 118.807451 
L 74.522692 116.032431 
L 78.515369 113.616429 
L 82.241868 111.61857 
L 85.835277 109.942347 
L 89.295597 108.573843 
L 92.622828 107.497358 
L 95.81697 106.695792 
L 98.878023 106.150936 
L 101.939075 105.834836 
L 104.867038 105.756351 
L 107.795002 105.906832 
L 110.589876 106.273801 
L 113.38475 106.868921 
L 116.046534 107.657468 
L 118.708319 108.672274 
L 121.370104 109.923718 
L 124.031889 111.422816 
L 126.693673 113.181183 
L 129.355458 115.210937 
L 132.017243 117.524508 
L 134.679028 120.134294 
L 137.340812 123.052101 
L 140.135686 126.458529 
L 142.93056 130.22421 
L 145.858524 134.556418 
L 148.919576 139.497102 
L 152.246807 145.299532 
L 156.505663 153.209448 
L 162.893946 165.090573 
L 165.422642 169.302784 
L 167.41898 172.233176 
L 169.28223 174.573382 
L 170.8793 176.241357 
L 172.476371 177.58742 
L 173.940353 178.546692 
L 175.537424 179.318495 
L 177.134495 179.842941 
L 178.997744 180.207675 
L 181.260261 180.405537 
L 184.98676 180.463824 
L 191.508132 180.365477 
L 193.504471 180.10745 
L 195.101542 179.673393 
L 196.432434 179.082512 
L 197.630237 178.32038 
L 198.828041 177.297055 
L 200.025844 175.976984 
L 201.223647 174.334387 
L 202.554539 172.115951 
L 204.018521 169.203169 
L 205.615592 165.50302 
L 207.478841 160.603618 
L 209.874447 153.634457 
L 214.000214 140.796976 
L 219.190694 124.819556 
L 222.651014 114.880975 
L 225.845156 106.36973 
L 228.906208 98.839975 
L 231.834172 92.208322 
L 234.762135 86.119301 
L 237.690098 80.55314 
L 240.484972 75.708812 
L 243.279846 71.30514 
L 245.941631 67.506856 
L 248.603416 64.082973 
L 251.2652 61.023934 
L 253.793896 58.448809 
L 256.322591 56.19114 
L 258.718198 54.342114 
L 261.113804 52.773575 
L 263.376321 51.549621 
L 265.638838 50.576844 
L 267.768266 49.892767 
L 269.897694 49.436146 
L 272.027122 49.21103 
L 274.02346 49.214909 
L 276.019799 49.432315 
L 278.016137 49.869881 
L 280.012476 50.535606 
L 282.008814 51.439076 
L 284.005153 52.59174 
L 286.001492 54.007257 
L 287.99783 55.701943 
L 289.994169 57.695357 
L 291.990507 60.011053 
L 293.986846 62.677591 
L 295.983184 65.729884 
L 297.979523 69.211052 
L 299.975862 73.174983 
L 301.839111 77.370188 
L 303.70236 82.116027 
L 305.56561 87.503539 
L 307.29577 93.184353 
L 309.02593 99.646307 
L 310.623001 106.447341 
L 312.220072 114.227147 
L 313.817142 123.208429 
L 315.281124 132.728386 
L 316.745106 143.689087 
L 318.475266 158.451923 
L 320.338515 174.183217 
L 321.003961 178.17167 
L 321.403229 179.695516 
L 321.802497 180.415393 
L 322.068675 180.415393 
L 322.334854 180.02925 
L 322.734121 178.762505 
L 323.266478 175.962918 
L 324.065014 170.090382 
L 325.928263 153.745286 
L 327.658423 139.528024 
L 329.255494 128.233448 
L 330.852565 118.551551 
L 332.449636 110.202258 
L 334.179796 102.373205 
L 335.909956 95.56924 
L 337.773205 89.176489 
L 339.636455 83.585237 
L 341.499704 78.666409 
L 343.496043 74.031405 
L 345.492381 69.963267 
L 347.48872 66.390258 
L 349.485058 63.255941 
L 351.481397 60.515278 
L 353.477735 58.131879 
L 355.474074 56.076037 
L 357.470413 54.323285 
L 359.466751 52.853335 
L 361.46309 51.649271 
L 363.459428 50.696943 
L 365.455767 49.984491 
L 367.452105 49.501981 
L 369.448444 49.241114 
L 371.444783 49.195001 
L 373.57421 49.376161 
L 375.703638 49.789719 
L 377.833066 50.431404 
L 379.962494 51.29807 
L 382.225011 52.463065 
L 384.487528 53.878303 
L 386.883134 55.649327 
L 389.278741 57.701754 
L 391.807436 60.176175 
L 394.336132 62.97124 
L 396.864827 66.092953 
L 399.526612 69.740208 
L 402.188397 73.768501 
L 404.850181 78.190317 
L 407.645055 83.272159 
L 410.439929 88.820982 
L 413.234803 94.85466 
L 416.162767 101.713145 
L 419.09073 109.133091 
L 422.151782 117.486351 
L 425.612103 127.609572 
L 430.004047 141.215722 
L 435.194528 157.193915 
L 437.457045 163.471981 
L 439.320294 168.027192 
L 440.917365 171.369741 
L 442.381347 173.923997 
L 443.712239 175.810756 
L 445.043131 177.297055 
L 446.240934 178.32038 
L 447.571827 179.152836 
L 448.902719 179.719844 
L 450.366701 180.10745 
L 452.22995 180.355157 
L 454.891735 180.456589 
L 462.211643 180.42213 
L 464.740339 180.225579 
L 466.603588 179.876976 
L 468.200659 179.371014 
L 469.79773 178.621516 
L 471.261711 177.685241 
L 472.725693 176.488019 
L 474.322764 174.873589 
L 475.919835 172.943255 
L 477.783084 170.323769 
L 479.912512 166.921497 
L 482.574297 162.224542 
L 487.365509 153.209448 
L 492.289811 144.106892 
L 495.750131 138.169187 
L 498.811184 133.335925 
L 501.739147 129.111375 
L 504.534021 125.448878 
L 507.328895 122.143763 
L 510.123769 119.186415 
L 512.785554 116.681693 
L 515.447338 114.468879 
L 518.109123 112.535513 
L 520.770908 110.869246 
L 523.432693 109.458119 
L 526.094477 108.290719 
L 528.756262 107.356252 
L 531.551136 106.61465 
L 534.34601 106.107652 
L 537.140884 105.824966 
L 540.068847 105.758935 
L 542.996811 105.918187 
L 546.057863 106.315029 
L 549.118916 106.937068 
L 552.313057 107.815574 
L 555.640288 108.968469 
L 559.100609 110.412532 
L 562.694018 112.163091 
L 566.420517 114.233607 
L 570.280105 116.635096 
L 574.405871 119.47091 
L 578.797816 122.768646 
L 583.455939 126.54631 
L 588.114063 130.571005 
L 588.114063 130.571005 
" clip-path="url(#p83a9f8bd74)" style="fill: none; stroke: #004a85; stroke-width: 2.6; stroke-linecap: square"/>
   </g>
   <g id="line2d_35">
    <defs>
     <path id="m92b0eafeab" d="M 0 3 
C 0.795609 3 1.55874 2.683901 2.12132 2.12132 
C 2.683901 1.55874 3 0.795609 3 0 
C 3 -0.795609 2.683901 -1.55874 2.12132 -2.12132 
C 1.55874 -2.683901 0.795609 -3 0 -3 
C -0.795609 -3 -1.55874 -2.683901 -2.12132 -2.12132 
C -2.683901 -1.55874 -3 -0.795609 -3 0 
C -3 0.795609 -2.683901 1.55874 -2.12132 2.12132 
C -1.55874 2.683901 -0.795609 3 0 3 
z
" style="stroke: #1d7a4d"/>
    </defs>
    <g clip-path="url(#p83a9f8bd74)">
     <use xlink:href="#m92b0eafeab" x="273.136199" y="49.186883" style="fill: #1d7a4d; stroke: #1d7a4d"/>
    </g>
   </g>
   <g id="line2d_36">
    <g clip-path="url(#p83a9f8bd74)">
     <use xlink:href="#m92b0eafeab" x="370.734973" y="49.186883" style="fill: #1d7a4d; stroke: #1d7a4d"/>
    </g>
   </g>
   <g id="patch_3">
    <path d="M 55.757109 241.436953 
L 55.757109 4.32 
" style="fill: none; stroke: #8a929c; stroke-linejoin: miter; stroke-linecap: square"/>
   </g>
   <g id="patch_4">
    <path d="M 588.114063 241.436953 
L 588.114063 4.32 
" style="fill: none; stroke: #8a929c; stroke-linejoin: miter; stroke-linecap: square"/>
   </g>
   <g id="patch_5">
    <path d="M 55.757109 241.436953 
L 588.114063 241.436953 
" style="fill: none; stroke: #8a929c; stroke-linejoin: miter; stroke-linecap: square"/>
   </g>
   <g id="patch_6">
    <path d="M 55.757109 4.32 
L 588.114063 4.32 
" style="fill: none; stroke: #8a929c; stroke-linejoin: miter; stroke-linecap: square"/>
   </g>
   <g id="patch_7">
    <path d="M 442.658602 70.542516 
Q 407.655974 60.149502 374.046669 50.170195 
" style="fill: none; stroke: #1d7a4d; stroke-width: 1.3; stroke-linecap: round"/>
    <path d="M 377.964983 53.837185 
L 374.046669 50.170195 
L 379.331249 49.235737 
" style="fill: none; stroke: #1d7a4d; stroke-width: 1.3; stroke-linecap: round"/>
   </g>
   <g id="text_19">
    <text style="font-size: 12px; font-family:inherit; text-anchor: start; fill: #1d7a4d" x="406.225437" y="82.229856" transform="rotate(-0 406.225437 82.229856)">peaks near +/-11 deg</text>
   </g>
   <g id="patch_8">
    <path d="M 388.821205 213.104397 
Q 357.145913 195.907166 326.74795 179.403426 
" style="fill: none; stroke: #b01e24; stroke-width: 1.3; stroke-linecap: round"/>
    <path d="M 329.821203 183.802871 
L 326.74795 179.403426 
L 332.111457 179.58449 
" style="fill: none; stroke: #b01e24; stroke-width: 1.3; stroke-linecap: round"/>
   </g>
   <g id="text_20">
    <text style="font-size: 12px; font-family:inherit; text-anchor: start; fill: #b01e24" x="337.462664" y="225.177505" transform="rotate(-0 337.462664 225.177505)">boresight null  -22 dBc</text>
   </g>
   <g id="legend_1">
    <g id="line2d_37">
     <path d="M 66.107109 207.048359 
L 77.607109 207.048359 
L 89.107109 207.048359 
" style="fill: none; stroke: #5a5a5a; stroke-width: 1.4; stroke-linecap: square"/>
    </g>
    <g id="text_21">
     <text style="font-size: 11.5px; font-family:inherit; text-anchor: start; fill: #1a1a1a" x="98.307109" y="211.073359" transform="rotate(-0 98.307109 211.073359)">sum  (Beam 1 Phase 0)</text>
    </g>
    <g id="line2d_38">
     <path d="M 66.107109 224.299258 
L 77.607109 224.299258 
L 89.107109 224.299258 
" style="fill: none; stroke: #004a85; stroke-width: 2.6; stroke-linecap: square"/>
    </g>
    <g id="text_22">
     <text style="font-size: 11.5px; font-family:inherit; text-anchor: start; fill: #1a1a1a" x="98.307109" y="228.324258" transform="rotate(-0 98.307109 228.324258)">difference  (Beam 1 Phase 180)</text>
    </g>
   </g>
  </g>
 </g>
 <defs>
  <clipPath id="p83a9f8bd74">
   <rect x="55.757109" y="4.32" width="532.356953" height="237.116953"/>
  </clipPath>
 </defs>
</svg>
