<svg xmlns:xlink="http://www.w3.org/1999/xlink" width="308.390864pt" height="191.592pt" viewBox="0 0 308.390864 191.592" xmlns="http://www.w3.org/2000/svg" version="1.1">
 <metadata>
  <rdf:RDF xmlns:dc="http://purl.org/dc/elements/1.1/" xmlns:cc="http://creativecommons.org/ns#" xmlns:rdf="http://www.w3.org/1999/02/22-rdf-syntax-ns#">
   <cc:Work>
    <dc:type rdf:resource="http://purl.org/dc/dcmitype/StillImage"/>
    <dc:format>image/svg+xml</dc:format>
    <dc:creator>
     <cc:Agent>
      <dc:title>Matplotlib v3.11.2, https://matplotlib.org/</dc:title>
     </cc:Agent>
    </dc:creator>
   </cc:Work>
  </rdf:RDF>
 </metadata>
 <defs>
  <style type="text/css">*{stroke-linejoin: round; stroke-linecap: butt}</style>
 </defs>
 <g id="figure_1">
  <g id="patch_1">
   <path d="M 0 191.592 
L 308.390864 191.592 
L 308.390864 0 
L 0 0 
L 0 191.592 
z
" style="fill: none"/>
  </g>
  <g id="axes_1">
   <g id="line2d_1">
    <path d="M 64.020126 110.239579 
L 64.020126 31.281347 
" clip-path="url(#p5f11066594)" style="fill: none; stroke-dasharray: 2,3; stroke-dashoffset: 0; stroke: #1d7a4d"/>
   </g>
   <g id="patch_2">
    <path d="M 64.460402 109.032668 
L 64.624677 107.98833 
L 64.801252 106.920337 
L 64.990258 105.8299 
L 65.191797 104.718278 
L 65.405942 103.586782 
L 65.632741 102.436773 
L 65.872208 101.269656 
L 66.12433 100.08688 
L 66.389064 98.889936 
L 66.666332 97.680354 
L 66.956028 96.4597 
L 67.258014 95.229576 
L 67.572118 93.991612 
L 67.898137 92.747469 
L 68.235834 91.498833 
L 68.584942 90.247411 
L 68.94516 88.99493 
L 69.316154 87.743134 
L 69.697561 86.49378 
L 70.088983 85.248633 
L 70.489993 84.009468 
L 70.900131 82.778059 
L 71.31891 81.556184 
L 71.74581 80.345614 
L 72.180284 79.148115 
L 72.621758 77.965443 
L 73.069629 76.79934 
L 73.523268 75.651531 
L 73.982023 74.52372 
L 74.445217 73.417588 
L 74.91215 72.334789 
L 75.382102 71.276948 
L 75.854331 70.245654 
L 76.328078 69.242461 
L 76.802568 68.268885 
L 77.277008 67.326396 
L 77.750595 66.41642 
L 78.222509 65.540336 
L 78.691925 64.699471 
L 79.158005 63.895096 
L 79.619906 63.12843 
L 80.076781 62.400629 
L 80.527778 61.712792 
L 80.972046 61.06595 
L 81.408733 60.461074 
L 81.83699 59.899064 
L 82.255973 59.380753 
L 82.664845 58.906902 
L 83.062778 58.478201 
L 83.448952 58.095267 
L 83.822564 57.75864 
L 84.18282 57.468787 
L 84.528947 57.226098 
L 84.860189 57.030885 
L 85.175807 56.883382 
L 85.475089 56.783746 
L 85.757344 56.732055 
L 86.021906 56.72831 
L 86.268137 56.772431 
L 86.495429 56.864263 
L 86.703202 57.003572 
L 86.89091 57.190046 
L 87.05804 57.423299 
L 87.204112 57.70287 
L 87.328685 58.028222 
L 87.431354 58.398746 
L 87.511751 58.813762 
L 87.569549 59.27252 
L 87.604462 59.774201 
L 87.616244 60.317921 
L 87.604692 60.90273 
L 87.569646 61.527616 
L 87.510988 62.191508 
L 87.428645 62.893277 
L 87.322589 63.631736 
L 87.192835 64.405649 
L 87.039443 65.213727 
L 86.862518 66.054635 
L 86.662211 66.926992 
L 86.438715 67.829377 
L 86.19227 68.760329 
L 85.923158 69.71835 
L 85.631706 70.701912 
L 85.318282 71.709457 
L 84.983298 72.739397 
L 84.627207 73.790126 
L 84.250504 74.860015 
L 83.85372 75.947418 
L 83.437428 77.050677 
L 83.002238 78.168123 
L 82.548796 79.298081 
L 82.077781 80.43887 
L 81.589909 81.588812 
L 81.085926 82.746228 
L 80.566608 83.909448 
L 80.032762 85.076808 
L 79.48522 86.24666 
L 78.92484 87.417368 
L 78.352506 88.587313 
L 77.76912 89.754901 
L 77.175607 90.918559 
L 76.572908 92.07674 
L 75.96198 93.227928 
L 75.343797 94.370636 
L 74.71934 95.503414 
L 74.089604 96.624847 
L 73.45559 97.733559 
L 72.818304 98.828213 
L 72.178757 99.907518 
L 71.53796 100.970225 
L 70.896926 102.015134 
L 70.256663 103.041091 
L 69.618173 104.046993 
L 68.982455 105.031787 
L 68.350496 105.994475 
L 67.723273 106.934109 
L 67.101751 107.849799 
L 66.486879 108.740708 
L 65.87959 109.606058 
z
" clip-path="url(#p5f11066594)" style="fill: #004a85; opacity: 0.16"/>
   </g>
   <g id="line2d_2">
    <path d="M 64.460402 109.032668 
L 64.624677 107.98833 
L 64.801252 106.920337 
L 64.990258 105.8299 
L 65.191797 104.718278 
L 65.405942 103.586782 
L 65.632741 102.436773 
L 65.872208 101.269656 
L 66.12433 100.08688 
L 66.389064 98.889936 
L 66.666332 97.680354 
L 66.956028 96.4597 
L 67.258014 95.229576 
L 67.572118 93.991612 
L 67.898137 92.747469 
L 68.235834 91.498833 
L 68.584942 90.247411 
L 68.94516 88.99493 
L 69.316154 87.743134 
L 69.697561 86.49378 
L 70.088983 85.248633 
L 70.489993 84.009468 
L 70.900131 82.778059 
L 71.31891 81.556184 
L 71.74581 80.345614 
L 72.180284 79.148115 
L 72.621758 77.965443 
L 73.069629 76.79934 
L 73.523268 75.651531 
L 73.982023 74.52372 
L 74.445217 73.417588 
L 74.91215 72.334789 
L 75.382102 71.276948 
L 75.854331 70.245654 
L 76.328078 69.242461 
L 76.802568 68.268885 
L 77.277008 67.326396 
L 77.750595 66.41642 
L 78.222509 65.540336 
L 78.691925 64.699471 
L 79.158005 63.895096 
L 79.619906 63.12843 
L 80.076781 62.400629 
L 80.527778 61.712792 
L 80.972046 61.06595 
L 81.408733 60.461074 
L 81.83699 59.899064 
L 82.255973 59.380753 
L 82.664845 58.906902 
L 83.062778 58.478201 
L 83.448952 58.095267 
L 83.822564 57.75864 
L 84.18282 57.468787 
L 84.528947 57.226098 
L 84.860189 57.030885 
L 85.175807 56.883382 
L 85.475089 56.783746 
L 85.757344 56.732055 
L 86.021906 56.72831 
L 86.268137 56.772431 
L 86.495429 56.864263 
L 86.703202 57.003572 
L 86.89091 57.190046 
L 87.05804 57.423299 
L 87.204112 57.70287 
L 87.328685 58.028222 
L 87.431354 58.398746 
L 87.511751 58.813762 
L 87.569549 59.27252 
L 87.604462 59.774201 
L 87.616244 60.317921 
L 87.604692 60.90273 
L 87.569646 61.527616 
L 87.510988 62.191508 
L 87.428645 62.893277 
L 87.322589 63.631736 
L 87.192835 64.405649 
L 87.039443 65.213727 
L 86.862518 66.054635 
L 86.662211 66.926992 
L 86.438715 67.829377 
L 86.19227 68.760329 
L 85.923158 69.71835 
L 85.631706 70.701912 
L 85.318282 71.709457 
L 84.983298 72.739397 
L 84.627207 73.790126 
L 84.250504 74.860015 
L 83.85372 75.947418 
L 83.437428 77.050677 
L 83.002238 78.168123 
L 82.548796 79.298081 
L 82.077781 80.43887 
L 81.589909 81.588812 
L 81.085926 82.746228 
L 80.566608 83.909448 
L 80.032762 85.076808 
L 79.48522 86.24666 
L 78.92484 87.417368 
L 78.352506 88.587313 
L 77.76912 89.754901 
L 77.175607 90.918559 
L 76.572908 92.07674 
L 75.96198 93.227928 
L 75.343797 94.370636 
L 74.71934 95.503414 
L 74.089604 96.624847 
L 73.45559 97.733559 
L 72.818304 98.828213 
L 72.178757 99.907518 
L 71.53796 100.970225 
L 70.896926 102.015134 
L 70.256663 103.041091 
L 69.618173 104.046993 
L 68.982455 105.031787 
L 68.350496 105.994475 
L 67.723273 106.934109 
L 67.101751 107.849799 
L 66.486879 108.740708 
L 65.87959 109.606058 
" clip-path="url(#p5f11066594)" style="fill: none; stroke: #004a85; stroke-opacity: 0.4; stroke-width: 1.4; stroke-linecap: square"/>
   </g>
   <g id="text_1">
    <text style="font-size: 13px; font-family:'Source Sans Pro', 'Segoe UI', Roboto, Helvetica, Arial, sans-serif; text-anchor: start; fill: #1d7a4d" x="72.686274" y="30.714372" transform="rotate(-0 72.686274 30.714372)">source</text>
   </g>
   <g id="text_2">
    <text style="font-size: 13px; font-family:'Source Sans Pro', 'Segoe UI', Roboto, Helvetica, Arial, sans-serif; text-anchor: middle; fill: #1a1a1a" x="64.020126" y="145.943055" transform="rotate(-0 64.020126 145.943055)">turn the array</text>
   </g>
   <g id="text_3">
    <text style="font-size: 13px; font-family:'Source Sans Pro', 'Segoe UI', Roboto, Helvetica, Arial, sans-serif; text-anchor: middle; fill: #004a85" x="64.020126" y="165.201161" transform="rotate(-0 64.020126 165.201161)">traces EF × AF</text>
   </g>
   <g id="patch_3">
    <path d="M 59.2056 29.355537 
L 68.834653 29.355537 
L 68.834653 22.6152 
L 59.2056 22.6152 
z
" clip-path="url(#p5f11066594)" style="fill: #1d7a4d"/>
   </g>
   <g id="patch_4">
    <path d="M 45.08219 107.629547 
L 80.793799 122.057973 
L 82.236641 118.486812 
L 46.525033 104.058386 
z
" clip-path="url(#p5f11066594)" style="fill: #004a85"/>
   </g>
   <g id="patch_5">
    <path d="M 34.19571 119.344586 
Q 64.021615 133.436525 93.84754 119.343221 
" clip-path="url(#p5f11066594)" style="fill: none; stroke: #1a1a1a; stroke-width: 1.1; stroke-linecap: round"/>
    <path d="M 36.95797 122.861675 
L 34.19571 119.344586 
L 38.666737 119.245031 
z
" clip-path="url(#p5f11066594)" style="fill: #1a1a1a; stroke: #1a1a1a; stroke-width: 1.1; stroke-linecap: round"/>
    <path d="M 89.376508 119.243832 
L 93.84754 119.343221 
L 91.08541 122.860413 
z
" clip-path="url(#p5f11066594)" style="fill: #1a1a1a; stroke: #1a1a1a; stroke-width: 1.1; stroke-linecap: round"/>
   </g>
  </g>
  <g id="axes_2">
   <g id="line2d_3">
    <path d="M 232.645004 110.239579 
L 272.894444 42.451314 
" clip-path="url(#p51c16a5720)" style="fill: none; stroke-dasharray: 2,3; stroke-dashoffset: 0; stroke: #1d7a4d"/>
   </g>
   <g id="patch_6">
    <path d="M 288.035923 68.889261 
C 281.461942 60.474949 273.056272 53.668172 263.459026 48.987283 
C 253.86178 44.306393 243.322919 41.873305 232.645004 41.873305 
C 221.967089 41.873305 211.428229 44.306393 201.830983 48.987283 
C 192.233736 53.668172 183.828067 60.474949 177.254086 68.889261 
" clip-path="url(#p51c16a5720)" style="fill: none; stroke-dasharray: 3.3,3.3; stroke-dashoffset: 0; stroke: #1a1a1a; stroke-width: 1.1; stroke-linejoin: miter"/>
   </g>
   <g id="patch_7">
    <path d="M 230.447447 109.889752 
L 229.725635 109.117343 
L 228.992756 108.320677 
L 228.249843 107.500398 
L 227.497952 106.657201 
L 226.738163 105.791834 
L 225.971575 104.905098 
L 225.199305 103.997846 
L 224.422486 103.070981 
L 223.642268 102.125456 
L 222.859807 101.162272 
L 222.076274 100.182479 
L 221.292844 99.187171 
L 220.510697 98.177487 
L 219.731016 97.15461 
L 218.954984 96.119764 
L 218.183782 95.074211 
L 217.418586 94.019251 
L 216.660565 92.956221 
L 215.910878 91.886489 
L 215.170672 90.811455 
L 214.441083 89.732549 
L 213.723226 88.651224 
L 213.018201 87.568961 
L 212.327085 86.487258 
L 211.650932 85.407633 
L 210.990772 84.331622 
L 210.347607 83.26077 
L 209.72241 82.196635 
L 209.11612 81.140782 
L 208.529647 80.094777 
L 207.963863 79.060191 
L 207.419603 78.038592 
L 206.897666 77.031543 
L 206.398807 76.040598 
L 205.923743 75.067301 
L 205.473146 74.113183 
L 205.047645 73.179755 
L 204.647821 72.26851 
L 204.274211 71.380917 
L 203.927303 70.518419 
L 203.607536 69.682428 
L 203.315302 68.874327 
L 203.05094 68.095461 
L 202.814741 67.347138 
L 202.606943 66.630626 
L 202.427734 65.947147 
L 202.277251 65.297879 
L 202.155579 64.683952 
L 202.06275 64.106442 
L 201.998746 63.566374 
L 201.963498 63.064716 
L 201.956888 62.602379 
L 201.978743 62.180213 
L 202.028845 61.799006 
L 202.106926 61.459483 
L 202.212668 61.162304 
L 202.345708 60.90806 
L 202.505638 60.697277 
L 202.692001 60.530407 
L 202.9043 60.407836 
L 203.141994 60.329876 
L 203.404503 60.296765 
L 203.691205 60.30867 
L 204.001441 60.365684 
L 204.334516 60.467826 
L 204.689702 60.61504 
L 205.066237 60.807195 
L 205.463327 61.044089 
L 205.880152 61.325443 
L 206.315862 61.650906 
L 206.769586 62.020053 
L 207.240426 62.432389 
L 207.727467 62.887345 
L 208.229773 63.384283 
L 208.746392 63.922498 
L 209.276359 64.501214 
L 209.818696 65.119591 
L 210.372415 65.776724 
L 210.93652 66.471645 
L 211.510012 67.203325 
L 212.091885 67.970678 
L 212.681134 68.772558 
L 213.276756 69.607767 
L 213.877748 70.475054 
L 214.483116 71.37312 
L 215.09187 72.300617 
L 215.703032 73.256153 
L 216.315633 74.238295 
L 216.928718 75.245571 
L 217.541348 76.276474 
L 218.152599 77.329463 
L 218.761568 78.402968 
L 219.367371 79.495391 
L 219.969144 80.605111 
L 220.56605 81.730489 
L 221.157274 82.869865 
L 221.742029 84.021566 
L 222.319555 85.183911 
L 222.889121 86.355207 
L 223.450025 87.53376 
L 224.001596 88.717874 
L 224.543197 89.905855 
L 225.07422 91.096014 
L 225.594095 92.286671 
L 226.102283 93.476158 
L 226.598279 94.66282 
L 227.081618 95.845021 
L 227.551865 97.021145 
L 228.008624 98.189602 
L 228.451535 99.348824 
L 228.880275 100.497276 
L 229.294554 101.633453 
L 229.694122 102.755884 
L 230.078764 103.863137 
L 230.448299 104.953817 
L 230.802584 106.026572 
L 231.14151 107.080094 
L 231.465003 108.113118 
L 231.773023 109.12443 
z
" clip-path="url(#p51c16a5720)" style="fill: #0067b9; opacity: 0.07"/>
   </g>
   <g id="line2d_4">
    <path d="M 230.447447 109.889752 
L 229.725635 109.117343 
L 228.992756 108.320677 
L 228.249843 107.500398 
L 227.497952 106.657201 
L 226.738163 105.791834 
L 225.971575 104.905098 
L 225.199305 103.997846 
L 224.422486 103.070981 
L 223.642268 102.125456 
L 222.859807 101.162272 
L 222.076274 100.182479 
L 221.292844 99.187171 
L 220.510697 98.177487 
L 219.731016 97.15461 
L 218.954984 96.119764 
L 218.183782 95.074211 
L 217.418586 94.019251 
L 216.660565 92.956221 
L 215.910878 91.886489 
L 215.170672 90.811455 
L 214.441083 89.732549 
L 213.723226 88.651224 
L 213.018201 87.568961 
L 212.327085 86.487258 
L 211.650932 85.407633 
L 210.990772 84.331622 
L 210.347607 83.26077 
L 209.72241 82.196635 
L 209.11612 81.140782 
L 208.529647 80.094777 
L 207.963863 79.060191 
L 207.419603 78.038592 
L 206.897666 77.031543 
L 206.398807 76.040598 
L 205.923743 75.067301 
L 205.473146 74.113183 
L 205.047645 73.179755 
L 204.647821 72.26851 
L 204.274211 71.380917 
L 203.927303 70.518419 
L 203.607536 69.682428 
L 203.315302 68.874327 
L 203.05094 68.095461 
L 202.814741 67.347138 
L 202.606943 66.630626 
L 202.427734 65.947147 
L 202.277251 65.297879 
L 202.155579 64.683952 
L 202.06275 64.106442 
L 201.998746 63.566374 
L 201.963498 63.064716 
L 201.956888 62.602379 
L 201.978743 62.180213 
L 202.028845 61.799006 
L 202.106926 61.459483 
L 202.212668 61.162304 
L 202.345708 60.90806 
L 202.505638 60.697277 
L 202.692001 60.530407 
L 202.9043 60.407836 
L 203.141994 60.329876 
L 203.404503 60.296765 
L 203.691205 60.30867 
L 204.001441 60.365684 
L 204.334516 60.467826 
L 204.689702 60.61504 
L 205.066237 60.807195 
L 205.463327 61.044089 
L 205.880152 61.325443 
L 206.315862 61.650906 
L 206.769586 62.020053 
L 207.240426 62.432389 
L 207.727467 62.887345 
L 208.229773 63.384283 
L 208.746392 63.922498 
L 209.276359 64.501214 
L 209.818696 65.119591 
L 210.372415 65.776724 
L 210.93652 66.471645 
L 211.510012 67.203325 
L 212.091885 67.970678 
L 212.681134 68.772558 
L 213.276756 69.607767 
L 213.877748 70.475054 
L 214.483116 71.37312 
L 215.09187 72.300617 
L 215.703032 73.256153 
L 216.315633 74.238295 
L 216.928718 75.245571 
L 217.541348 76.276474 
L 218.152599 77.329463 
L 218.761568 78.402968 
L 219.367371 79.495391 
L 219.969144 80.605111 
L 220.56605 81.730489 
L 221.157274 82.869865 
L 221.742029 84.021566 
L 222.319555 85.183911 
L 222.889121 86.355207 
L 223.450025 87.53376 
L 224.001596 88.717874 
L 224.543197 89.905855 
L 225.07422 91.096014 
L 225.594095 92.286671 
L 226.102283 93.476158 
L 226.598279 94.66282 
L 227.081618 95.845021 
L 227.551865 97.021145 
L 228.008624 98.189602 
L 228.451535 99.348824 
L 228.880275 100.497276 
L 229.294554 101.633453 
L 229.694122 102.755884 
L 230.078764 103.863137 
L 230.448299 104.953817 
L 230.802584 106.026572 
L 231.14151 107.080094 
L 231.465003 108.113118 
L 231.773023 109.12443 
" clip-path="url(#p51c16a5720)" style="fill: none; stroke: #0067b9; stroke-opacity: 0.175; stroke-width: 1.4; stroke-linecap: square"/>
   </g>
   <g id="patch_8">
    <path d="M 231.879682 109.095851 
L 231.64078 108.066019 
L 231.404421 107.009647 
L 231.171179 105.927808 
L 230.941621 104.821632 
L 230.716308 103.692308 
L 230.495791 102.541078 
L 230.280611 101.36924 
L 230.071299 100.178142 
L 229.868372 98.969184 
L 229.672334 97.743812 
L 229.483671 96.503519 
L 229.302854 95.249842 
L 229.130337 93.984357 
L 228.966552 92.708679 
L 228.811912 91.42446 
L 228.666808 90.133383 
L 228.531609 88.837164 
L 228.406658 87.537542 
L 228.292276 86.236283 
L 228.188756 84.935174 
L 228.096366 83.636019 
L 228.015346 82.340636 
L 227.945908 81.050856 
L 227.888236 79.768515 
L 227.842482 78.495457 
L 227.808773 77.233524 
L 227.787202 75.984556 
L 227.777832 74.75039 
L 227.780697 73.532849 
L 227.795798 72.333746 
L 227.823108 71.154876 
L 227.862565 69.998016 
L 227.914078 68.864917 
L 227.977526 67.757304 
L 228.052757 66.676872 
L 228.139589 65.625283 
L 228.237807 64.60416 
L 228.347172 63.615087 
L 228.467413 62.659603 
L 228.598231 61.739204 
L 228.7393 60.855332 
L 228.890268 60.009379 
L 229.050757 59.20268 
L 229.220364 58.436514 
L 229.398662 57.712097 
L 229.585202 57.030582 
L 229.779514 56.393058 
L 229.981106 55.800545 
L 230.189469 55.253993 
L 230.404074 54.754278 
L 230.624377 54.302206 
L 230.849821 53.898505 
L 231.079831 53.543826 
L 231.313825 53.238742 
L 231.551206 52.983747 
L 231.791371 52.779253 
L 232.033709 52.625592 
L 232.277604 52.523013 
L 232.522433 52.471682 
L 232.767575 52.471682 
L 233.012405 52.523013 
L 233.2563 52.625592 
L 233.498638 52.779253 
L 233.738803 52.983747 
L 233.976184 53.238742 
L 234.210177 53.543826 
L 234.440188 53.898505 
L 234.665631 54.302206 
L 234.885935 54.754278 
L 235.10054 55.253993 
L 235.308903 55.800545 
L 235.510495 56.393058 
L 235.704806 57.030582 
L 235.891347 57.712097 
L 236.069645 58.436514 
L 236.239252 59.20268 
L 236.399741 60.009379 
L 236.550709 60.855332 
L 236.691778 61.739204 
L 236.822596 62.659603 
L 236.942836 63.615087 
L 237.052201 64.60416 
L 237.15042 65.625283 
L 237.237251 66.676872 
L 237.312482 67.757304 
L 237.375931 68.864917 
L 237.427444 69.998016 
L 237.466901 71.154876 
L 237.49421 72.333746 
L 237.509312 73.532849 
L 237.512177 74.75039 
L 237.502807 75.984556 
L 237.481236 77.233524 
L 237.447526 78.495457 
L 237.401773 79.768515 
L 237.3441 81.050856 
L 237.274662 82.340636 
L 237.193642 83.636019 
L 237.101253 84.935174 
L 236.997733 86.236283 
L 236.883351 87.537542 
L 236.7584 88.837164 
L 236.623201 90.133383 
L 236.478097 91.42446 
L 236.323457 92.708679 
L 236.159672 93.984357 
L 235.987155 95.249842 
L 235.806338 96.503519 
L 235.617675 97.743812 
L 235.421636 98.969184 
L 235.21871 100.178142 
L 235.009398 101.36924 
L 234.794218 102.541078 
L 234.573701 103.692308 
L 234.348388 104.821632 
L 234.11883 105.927808 
L 233.885588 107.009647 
L 233.649229 108.066019 
L 233.410326 109.095851 
z
" clip-path="url(#p51c16a5720)" style="fill: #0067b9; opacity: 0.1"/>
   </g>
   <g id="line2d_5">
    <path d="M 231.879682 109.095851 
L 231.64078 108.066019 
L 231.404421 107.009647 
L 231.171179 105.927808 
L 230.941621 104.821632 
L 230.716308 103.692308 
L 230.495791 102.541078 
L 230.280611 101.36924 
L 230.071299 100.178142 
L 229.868372 98.969184 
L 229.672334 97.743812 
L 229.483671 96.503519 
L 229.302854 95.249842 
L 229.130337 93.984357 
L 228.966552 92.708679 
L 228.811912 91.42446 
L 228.666808 90.133383 
L 228.531609 88.837164 
L 228.406658 87.537542 
L 228.292276 86.236283 
L 228.188756 84.935174 
L 228.096366 83.636019 
L 228.015346 82.340636 
L 227.945908 81.050856 
L 227.888236 79.768515 
L 227.842482 78.495457 
L 227.808773 77.233524 
L 227.787202 75.984556 
L 227.777832 74.75039 
L 227.780697 73.532849 
L 227.795798 72.333746 
L 227.823108 71.154876 
L 227.862565 69.998016 
L 227.914078 68.864917 
L 227.977526 67.757304 
L 228.052757 66.676872 
L 228.139589 65.625283 
L 228.237807 64.60416 
L 228.347172 63.615087 
L 228.467413 62.659603 
L 228.598231 61.739204 
L 228.7393 60.855332 
L 228.890268 60.009379 
L 229.050757 59.20268 
L 229.220364 58.436514 
L 229.398662 57.712097 
L 229.585202 57.030582 
L 229.779514 56.393058 
L 229.981106 55.800545 
L 230.189469 55.253993 
L 230.404074 54.754278 
L 230.624377 54.302206 
L 230.849821 53.898505 
L 231.079831 53.543826 
L 231.313825 53.238742 
L 231.551206 52.983747 
L 231.791371 52.779253 
L 232.033709 52.625592 
L 232.277604 52.523013 
L 232.522433 52.471682 
L 232.767575 52.471682 
L 233.012405 52.523013 
L 233.2563 52.625592 
L 233.498638 52.779253 
L 233.738803 52.983747 
L 233.976184 53.238742 
L 234.210177 53.543826 
L 234.440188 53.898505 
L 234.665631 54.302206 
L 234.885935 54.754278 
L 235.10054 55.253993 
L 235.308903 55.800545 
L 235.510495 56.393058 
L 235.704806 57.030582 
L 235.891347 57.712097 
L 236.069645 58.436514 
L 236.239252 59.20268 
L 236.399741 60.009379 
L 236.550709 60.855332 
L 236.691778 61.739204 
L 236.822596 62.659603 
L 236.942836 63.615087 
L 237.052201 64.60416 
L 237.15042 65.625283 
L 237.237251 66.676872 
L 237.312482 67.757304 
L 237.375931 68.864917 
L 237.427444 69.998016 
L 237.466901 71.154876 
L 237.49421 72.333746 
L 237.509312 73.532849 
L 237.512177 74.75039 
L 237.502807 75.984556 
L 237.481236 77.233524 
L 237.447526 78.495457 
L 237.401773 79.768515 
L 237.3441 81.050856 
L 237.274662 82.340636 
L 237.193642 83.636019 
L 237.101253 84.935174 
L 236.997733 86.236283 
L 236.883351 87.537542 
L 236.7584 88.837164 
L 236.623201 90.133383 
L 236.478097 91.42446 
L 236.323457 92.708679 
L 236.159672 93.984357 
L 235.987155 95.249842 
L 235.806338 96.503519 
L 235.617675 97.743812 
L 235.421636 98.969184 
L 235.21871 100.178142 
L 235.009398 101.36924 
L 234.794218 102.541078 
L 234.573701 103.692308 
L 234.348388 104.821632 
L 234.11883 105.927808 
L 233.885588 107.009647 
L 233.649229 108.066019 
L 233.410326 109.095851 
" clip-path="url(#p51c16a5720)" style="fill: none; stroke: #0067b9; stroke-opacity: 0.25; stroke-width: 1.4; stroke-linecap: square"/>
   </g>
   <g id="patch_9">
    <path d="M 233.516985 109.12443 
L 233.825005 108.113118 
L 234.148499 107.080094 
L 234.487425 106.026572 
L 234.84171 104.953817 
L 235.211245 103.863137 
L 235.595887 102.755884 
L 235.995455 101.633453 
L 236.409734 100.497276 
L 236.838473 99.348824 
L 237.281385 98.189602 
L 237.738144 97.021145 
L 238.208391 95.845021 
L 238.691729 94.66282 
L 239.187726 93.476158 
L 239.695914 92.286671 
L 240.215788 91.096014 
L 240.746812 89.905855 
L 241.288413 88.717874 
L 241.839984 87.53376 
L 242.400888 86.355207 
L 242.970453 85.183911 
L 243.54798 84.021566 
L 244.132735 82.869865 
L 244.723959 81.730489 
L 245.320865 80.605111 
L 245.922638 79.495391 
L 246.52844 78.402968 
L 247.137409 77.329463 
L 247.748661 76.276474 
L 248.361291 75.245571 
L 248.974376 74.238295 
L 249.586977 73.256153 
L 250.198138 72.300617 
L 250.806893 71.37312 
L 251.412261 70.475054 
L 252.013253 69.607767 
L 252.608875 68.772558 
L 253.198124 67.970678 
L 253.779997 67.203325 
L 254.353488 66.471645 
L 254.917594 65.776724 
L 255.471313 65.119591 
L 256.01365 64.501214 
L 256.543617 63.922498 
L 257.060236 63.384283 
L 257.562542 62.887345 
L 258.049582 62.432389 
L 258.520423 62.020053 
L 258.974146 61.650906 
L 259.409857 61.325443 
L 259.826682 61.044089 
L 260.223772 60.807195 
L 260.600307 60.61504 
L 260.955493 60.467826 
L 261.288568 60.365684 
L 261.598804 60.30867 
L 261.885506 60.296765 
L 262.148014 60.329876 
L 262.385709 60.407836 
L 262.598008 60.530407 
L 262.784371 60.697277 
L 262.9443 60.90806 
L 263.077341 61.162304 
L 263.183083 61.459483 
L 263.261164 61.799006 
L 263.311266 62.180213 
L 263.333121 62.602379 
L 263.32651 63.064716 
L 263.291263 63.566374 
L 263.227259 64.106442 
L 263.13443 64.683952 
L 263.012757 65.297879 
L 262.862274 65.947147 
L 262.683066 66.630626 
L 262.475268 67.347138 
L 262.239069 68.095461 
L 261.974707 68.874327 
L 261.682472 69.682428 
L 261.362706 70.518419 
L 261.015798 71.380917 
L 260.642188 72.26851 
L 260.242364 73.179755 
L 259.816862 74.113183 
L 259.366265 75.067301 
L 258.891202 76.040598 
L 258.392343 77.031543 
L 257.870406 78.038592 
L 257.326146 79.060191 
L 256.760362 80.094777 
L 256.173889 81.140782 
L 255.567599 82.196635 
L 254.942401 83.26077 
L 254.299236 84.331622 
L 253.639077 85.407633 
L 252.962924 86.487258 
L 252.271808 87.568961 
L 251.566783 88.651224 
L 250.848926 89.732549 
L 250.119336 90.811455 
L 249.379131 91.886489 
L 248.629444 92.956221 
L 247.871422 94.019251 
L 247.106226 95.074211 
L 246.335024 96.119764 
L 245.558993 97.15461 
L 244.779312 98.177487 
L 243.997165 99.187171 
L 243.213735 100.182479 
L 242.430202 101.162272 
L 241.647741 102.125456 
L 240.867522 103.070981 
L 240.090704 103.997846 
L 239.318434 104.905098 
L 238.551845 105.791834 
L 237.792056 106.657201 
L 237.040166 107.500398 
L 236.297253 108.320677 
L 235.564374 109.117343 
L 234.842562 109.889752 
z
" clip-path="url(#p51c16a5720)" style="fill: #004a85; opacity: 0.2"/>
   </g>
   <g id="line2d_6">
    <path d="M 233.516985 109.12443 
L 233.825005 108.113118 
L 234.148499 107.080094 
L 234.487425 106.026572 
L 234.84171 104.953817 
L 235.211245 103.863137 
L 235.595887 102.755884 
L 235.995455 101.633453 
L 236.409734 100.497276 
L 236.838473 99.348824 
L 237.281385 98.189602 
L 237.738144 97.021145 
L 238.208391 95.845021 
L 238.691729 94.66282 
L 239.187726 93.476158 
L 239.695914 92.286671 
L 240.215788 91.096014 
L 240.746812 89.905855 
L 241.288413 88.717874 
L 241.839984 87.53376 
L 242.400888 86.355207 
L 242.970453 85.183911 
L 243.54798 84.021566 
L 244.132735 82.869865 
L 244.723959 81.730489 
L 245.320865 80.605111 
L 245.922638 79.495391 
L 246.52844 78.402968 
L 247.137409 77.329463 
L 247.748661 76.276474 
L 248.361291 75.245571 
L 248.974376 74.238295 
L 249.586977 73.256153 
L 250.198138 72.300617 
L 250.806893 71.37312 
L 251.412261 70.475054 
L 252.013253 69.607767 
L 252.608875 68.772558 
L 253.198124 67.970678 
L 253.779997 67.203325 
L 254.353488 66.471645 
L 254.917594 65.776724 
L 255.471313 65.119591 
L 256.01365 64.501214 
L 256.543617 63.922498 
L 257.060236 63.384283 
L 257.562542 62.887345 
L 258.049582 62.432389 
L 258.520423 62.020053 
L 258.974146 61.650906 
L 259.409857 61.325443 
L 259.826682 61.044089 
L 260.223772 60.807195 
L 260.600307 60.61504 
L 260.955493 60.467826 
L 261.288568 60.365684 
L 261.598804 60.30867 
L 261.885506 60.296765 
L 262.148014 60.329876 
L 262.385709 60.407836 
L 262.598008 60.530407 
L 262.784371 60.697277 
L 262.9443 60.90806 
L 263.077341 61.162304 
L 263.183083 61.459483 
L 263.261164 61.799006 
L 263.311266 62.180213 
L 263.333121 62.602379 
L 263.32651 63.064716 
L 263.291263 63.566374 
L 263.227259 64.106442 
L 263.13443 64.683952 
L 263.012757 65.297879 
L 262.862274 65.947147 
L 262.683066 66.630626 
L 262.475268 67.347138 
L 262.239069 68.095461 
L 261.974707 68.874327 
L 261.682472 69.682428 
L 261.362706 70.518419 
L 261.015798 71.380917 
L 260.642188 72.26851 
L 260.242364 73.179755 
L 259.816862 74.113183 
L 259.366265 75.067301 
L 258.891202 76.040598 
L 258.392343 77.031543 
L 257.870406 78.038592 
L 257.326146 79.060191 
L 256.760362 80.094777 
L 256.173889 81.140782 
L 255.567599 82.196635 
L 254.942401 83.26077 
L 254.299236 84.331622 
L 253.639077 85.407633 
L 252.962924 86.487258 
L 252.271808 87.568961 
L 251.566783 88.651224 
L 250.848926 89.732549 
L 250.119336 90.811455 
L 249.379131 91.886489 
L 248.629444 92.956221 
L 247.871422 94.019251 
L 247.106226 95.074211 
L 246.335024 96.119764 
L 245.558993 97.15461 
L 244.779312 98.177487 
L 243.997165 99.187171 
L 243.213735 100.182479 
L 242.430202 101.162272 
L 241.647741 102.125456 
L 240.867522 103.070981 
L 240.090704 103.997846 
L 239.318434 104.905098 
L 238.551845 105.791834 
L 237.792056 106.657201 
L 237.040166 107.500398 
L 236.297253 108.320677 
L 235.564374 109.117343 
L 234.842562 109.889752 
" clip-path="url(#p51c16a5720)" style="fill: none; stroke: #004a85; stroke-opacity: 0.5; stroke-width: 1.4; stroke-linecap: square"/>
   </g>
   <g id="text_4">
    <text style="font-size: 13px; font-family:'Source Sans Pro', 'Segoe UI', Roboto, Helvetica, Arial, sans-serif; text-anchor: middle; fill: #1a1a1a" x="232.645004" y="145.943055" transform="rotate(-0 232.645004 145.943055)">sweep the command</text>
   </g>
   <g id="text_5">
    <text style="font-size: 13px; font-family:'Source Sans Pro', 'Segoe UI', Roboto, Helvetica, Arial, sans-serif; text-anchor: middle; fill: #004a85" x="232.645004" y="165.201161" transform="rotate(-0 232.645004 165.201161)">traces AF only</text>
   </g>
   <g id="text_6">
    <text style="font-size: 13px; font-family:'Source Sans Pro', 'Segoe UI', Roboto, Helvetica, Arial, sans-serif; text-anchor: middle; fill: #5a5a5a" x="232.645004" y="182.533455" transform="rotate(-0 232.645004 182.533455)">(EF fixed at the source)</text>
   </g>
   <g id="patch_10">
    <path d="M 269.15825 39.293541 
L 277.497254 44.108067 
L 280.867422 38.270764 
L 272.528418 33.456238 
z
" clip-path="url(#p51c16a5720)" style="fill: #1d7a4d"/>
   </g>
   <g id="patch_11">
    <path d="M 213.386899 115.054105 
L 251.90311 115.054105 
L 251.90311 111.202484 
L 213.386899 111.202484 
z
" clip-path="url(#p51c16a5720)" style="fill: #004a85"/>
   </g>
  </g>
 </g>
 <defs>
  <clipPath id="p5f11066594">
   <rect x="4.32" y="4.32" width="119.400253" height="182.952"/>
  </clipPath>
  <clipPath id="p51c16a5720">
   <rect x="172.944878" y="4.32" width="119.400253" height="182.952"/>
  </clipPath>
 </defs>
</svg>
